HIERARCHY
ROOT Hips
{
  OFFSET 263.056 91.6644 -274.608
  CHANNELS 6 Xposition Yposition Zposition Zrotation Xrotation Yrotation
  JOINT LeftUpLeg
  {
    OFFSET 8.64259 1.95398 -2.38835
    CHANNELS 3 Zrotation Xrotation Yrotation
    JOINT LeftLeg
    {
      OFFSET 43.7702 0 0
      CHANNELS 3 Zrotation Xrotation Yrotation
      JOINT LeftFoot
      {
        OFFSET 40.6238 0 0
        CHANNELS 3 Zrotation Xrotation Yrotation
        JOINT LeftToeBase
        {
          OFFSET 12.7242 0 0
          CHANNELS 3 Zrotation Xrotation Yrotation
          End Site
          {
            OFFSET 0 0 0
          }
        }
      }
    }
  }
  JOINT RightUpLeg
  {
    OFFSET -8.2249 1.95398 -2.59336
    CHANNELS 3 Zrotation Xrotation Yrotation
    JOINT RightLeg
    {
      OFFSET 43.5653 0 0
      CHANNELS 3 Zrotation Xrotation Yrotation
      JOINT RightFoot
      {
        OFFSET 40.6238 0 0
        CHANNELS 3 Zrotation Xrotation Yrotation
        JOINT RightToeBase
        {
          OFFSET 12.7242 0 0
          CHANNELS 3 Zrotation Xrotation Yrotation
          End Site
          {
            OFFSET 0 0 0
          }
        }
      }
    }
  }
  JOINT Spine
  {
    OFFSET 0.165834 0.87714 6.61349
    CHANNELS 3 Zrotation Xrotation Yrotation
    JOINT Spine1
    {
      OFFSET 7.38963 1.71661e-005 0
      CHANNELS 3 Zrotation Xrotation Yrotation
      JOINT Spine2
      {
        OFFSET 11.9445 1.14441e-005 0
        CHANNELS 3 Zrotation Xrotation Yrotation
        JOINT Spine3
        {
          OFFSET 14.7254 4.19617e-005 0
          CHANNELS 3 Zrotation Xrotation Yrotation
          JOINT Spine4
          {
            OFFSET 10.9679 0 0
            CHANNELS 3 Zrotation Xrotation Yrotation
            JOINT RightShoulder
            {
              OFFSET 2.46616 -1.6653 3.69651
              CHANNELS 3 Zrotation Xrotation Yrotation
              JOINT RightArm
              {
                OFFSET 13.0012 0 0
                CHANNELS 3 Zrotation Xrotation Yrotation
                JOINT RightForeArm
                {
                  OFFSET 28.7848 1.52588e-005 0
                  CHANNELS 3 Zrotation Xrotation Yrotation
                  JOINT RightHand
                  {
                    OFFSET 26.5688 1.52588e-005 0
                    CHANNELS 3 Zrotation Xrotation Yrotation
                    End Site
                    {
                      OFFSET 0 0 0
                    }
                  }
                }
              }
            }
            JOINT LeftShoulder
            {
              OFFSET 2.38034 -1.29275 -3.7523
              CHANNELS 3 Zrotation Xrotation Yrotation
              JOINT LeftArm
              {
                OFFSET 16.3182 6.10352e-005 0
                CHANNELS 3 Zrotation Xrotation Yrotation
                JOINT LeftForeArm
                {
                  OFFSET 27.0901 0 0
                  CHANNELS 3 Zrotation Xrotation Yrotation
                  JOINT LeftHand
                  {
                    OFFSET 24.5451 1.52588e-005 0
                    CHANNELS 3 Zrotation Xrotation Yrotation
                    End Site
                    {
                      OFFSET 0 0 0
                    }
                  }
                }
              }
            }
            JOINT Neck
            {
              OFFSET 5.0226 -0.0266342 0
              CHANNELS 3 Zrotation Xrotation Yrotation
              JOINT Head
              {
                OFFSET 6.69364 2.86102e-005 0
                CHANNELS 3 Zrotation Xrotation Yrotation
                End Site
                {
                  OFFSET 0 0 0
                }
              }
            }
          }
        }
      }
    }
  }
}
MOTION
Frames:	15
Frame Time:	0.0416667
33.3116 94.5898 -30.0335 86.6399 -44.8713 82.7914 -176.028 -4.20949 90.0274 -45.8051 26.8702 1.07154 32.0834 -19.1261 -9.64663 23.5766 -6.74305 3.83812 -178.886 28.0181 92.0288 -22.6351 0.448657 -0.948506 53.6408 2.32525 2.05822 18.6199 -2.25552 10.8973 -0.940581 7.78593 -89.2559 11.3111 -1.52506 1.63307 -0.360064 -1.45172 1.69859 -22.898 -1.94533 1.09922 -2.88534 -1.94531 1.09923 78.9931 -51.13 -116.914 39.6203 -19.0289 44.5125 -11.0312 2.1436 -84.0702 -21.074 -0.812121 -0.573862 -97.596 -38.7792 63.2996 -26.9078 0.427698 9.48941 14.6554 -11.7257 -123.628 31.6339 3.35172 6.87367 12.8609 -0.642822 -0.53181 0.648171 -0.493449 -0.0939871 
26.4972 95.991 -36.5995 82.7588 -44.8937 79.9955 -176.741 -5.79217 87.2438 -34.0092 30.5361 0.682364 37.4664 -15.9683 -6.61831 29.9432 1.26333 0.520891 -179.501 27.9118 89.9808 -9.50809 -5.23151 0.209086 47.4514 4.62586 4.082 34.8118 0.232822 5.81637 -1.04628 7.57608 -89.38 11.7328 -1.7898 1.42498 0.0622078 -1.72534 1.50237 -22.4803 -2.13528 0.821076 -2.46769 -2.13528 0.821073 80.5699 -49.5605 -115.221 41.0572 -18.3779 47.6784 -12.0556 3.85144 -87.1593 -19.4819 -0.681388 -1.0221 -97.9882 -39.0185 62.7582 -25.2635 -2.65484 8.22884 13.1819 -13.1059 -133.04 29.5366 3.14434 6.90746 15.5438 0.0891111 0.80438 -1.20658 -0.150151 -0.736259 
19.664 96.7623 -43.1378 78.7053 -46.8817 77.1812 -176.144 -6.01546 85.5689 -23.1072 28.3435 -0.351697 42.5771 -12.1888 -3.28356 40.9255 13.7671 2.21878 -177.739 31.199 89.3518 -15.8193 -6.82283 -1.93389 51.8874 3.08099 2.57683 44.7635 1.22299 3.10192 -0.89376 7.35788 -89.4246 12.1663 -1.50452 1.31515 0.495511 -1.44518 1.38007 -22.0442 -1.83019 0.802111 -2.03158 -1.83019 0.802118 79.6789 -49.3406 -116.635 39.6133 -16.4315 48.6785 -11.5183 5.70722 -90.4717 -16.2539 -0.419278 -2.2057 -96.9049 -39.0923 64.5631 -25.6841 0.377468 7.31527 14.1373 -16.0699 -135.988 30.2036 3.01596 6.23352 18.1377 0.607769 1.50874 -2.42014 0.130885 -1.32351 
12.2216 96.1526 -49.9443 77.4808 -49.0678 76.1388 -175.944 -3.29158 83.9349 -20.1436 26.2412 -1.17855 46.1095 -9.18795 0.956415 46.509 19.6489 0.511284 -176.33 33.7673 89.2425 -32.1288 -3.75893 -4.45594 57.0723 1.08049 0.910736 51.2233 1.91478 3.99931 -0.595285 7.34588 -89.4302 12.186 -0.913455 1.23845 0.514752 -0.858066 1.27743 -22.0202 -1.24343 0.906674 -2.00754 -1.24341 0.906679 80.4111 -49.3414 -115.545 36.8792 -16.9314 44.3091 -11.7135 5.20267 -90.7349 -17.0179 -0.500996 -1.74536 -97.8161 -39.0546 63.0551 -26.5563 1.11823 9.01218 12.2166 -13.3997 -132.248 29.0036 2.96027 6.45825 18.5347 0.289263 1.13116 -2.11565 -0.0694246 -0.824079 
4.8367 94.7573 -57.1357 81.7492 -50.0729 81.2615 -175.622 0.433445 84.4898 -25.6146 24.6648 -1.071 53.5611 -1.38558 8.28257 57.6835 30.1039 -3.39918 -177.029 31.6293 90.2611 -49.0712 1.5882 -4.93098 57.6073 0.252492 0.337085 51.7343 1.83224 2.93026 -0.408941 7.59366 -89.6045 11.6887 -0.627767 0.853243 0.0175914 -0.589606 0.880038 -22.5175 -0.855188 0.62513 -2.50484 -0.85518 0.625128 80.3761 -50.7445 -115.046 32.0677 -17.9848 37.1534 -12.0502 4.18145 -88.8261 -17.5858 -0.585682 -1.27054 -99.2102 -39.7013 61.0738 -28.1596 2.81072 12.5078 13.2699 -11.2019 -121.798 31.0193 3.09045 6.21657 16.1771 -0.539077 0.284441 -0.56739 -0.608647 -0.343507 
-2.28666 92.8936 -64.1148 83.6896 -50.8313 84.792 -175.185 8.33063 84.9561 -36.3394 22.5882 -0.744337 62.0344 8.81316 15.2378 55.1874 27.3925 -3.98307 -178.543 28.5213 91.1473 -62.7195 6.4541 -4.65257 59.6866 -1.70705 -0.957614 46.2815 1.68057 6.83482 -0.153667 7.67745 -89.8722 11.519 -0.245895 0.280012 -0.151942 -0.233336 0.29056 -22.6872 -0.318678 0.193159 -2.67453 -0.318675 0.193165 79.9651 -51.5222 -115.344 27.5529 -18.2913 29.6807 -12.0075 4.95147 -89.2612 -16.8451 -0.678875 -0.421909 -100.14 -41.4121 60.3428 -30.1499 5.01511 14.7144 13.5757 -7.83138 -108.935 32.8135 3.17125 5.89094 15.1706 -1.1598 0.431013 0.360311 -1.24383 -0.110959 
-9.76208 91.1043 -70.2589 83.8048 -51.6844 83.5582 -175.112 17.1692 83.7895 -43.1907 19.1002 -0.95448 63.8721 13.3774 19.8518 55.1078 25.9931 -7.8799 -179.096 24.5105 89.0535 -72.143 7.08397 -5.62214 56.2314 -1.25562 -0.666413 47.9008 1.76452 5.57046 0.113945 7.70031 -89.6926 11.472 0.370443 0.574753 -0.199036 0.395381 0.557879 -22.7333 0.180575 0.659513 -2.72065 0.180572 0.659504 79.2941 -52.6153 -115.889 22.6508 -19.7912 20.3376 -12.1568 3.44783 -89.4292 -19.3861 -0.870918 0.152756 -100.206 -41.9823 60.4905 -32.7426 7.1087 16.8465 13.7433 -4.1193 -93.6535 35.5443 3.52312 6.12334 16.4472 -2.3537 -0.373884 -1.09359 -2.16569 0.39897 
-17.0066 90.3371 -76.0441 88.5723 -51.6888 86.2199 -174.964 21.6792 83.3497 -45.9257 16.2811 -0.947629 63.9358 13.7589 20.7398 53.4421 23.4559 -11.1714 179.596 14.0861 86.6472 -73.4401 5.79097 -6.44519 53.1885 -0.488533 -0.126561 42.8147 1.37194 8.5302 0.304744 7.95973 -89.6049 10.9513 0.789647 0.71086 -0.719543 0.820162 0.675412 -23.2541 0.539497 0.915306 -3.24146 0.539507 0.915305 79.7426 -51.0831 -115.843 21.6377 -22.2897 13.6611 -13.3102 4.39979 -93.6401 -20.8684 -1.06183 0.889135 -101.102 -42.109 59.1481 -35.9479 8.56845 23.2943 8.21798 -3.55627 -84.7788 37.2685 3.56154 5.74135 16.1673 -3.58277 -0.350684 -1.57214 -3.37001 0.187862 
-24.0129 91.4971 -81.7375 90.4616 -53.5137 87.313 -175.088 24.5762 84.3398 -41.8407 13.4542 -0.766158 62.8653 9.34283 15.0548 45.526 16.5137 -10.4593 178.636 3.72336 84.4824 -65.2694 5.01559 -7.6502 49.3554 0.985273 1.07979 33.9845 0.160902 10.0624 0.771021 7.96851 -89.61 10.9328 1.7155 0.612222 -0.737183 1.74078 0.536106 -23.278 1.45218 1.09956 -3.26533 1.45219 1.09956 81.2252 -47.6254 -115.002 24.0678 -23.8455 9.03418 -14.5167 8.40938 -99.35 -20.1598 -0.789214 -0.511737 -100.021 -42.1765 60.8664 -41.0308 11.1844 31.2708 7.26797 -3.25015 -84.9268 37.1373 3.47867 5.54646 14.2712 -4.82372 0.555355 -1.57131 -4.82593 0.17821 
-31.0999 94.0918 -87.2924 87.4289 -54.5248 84.8296 -175.952 25.076 86.7835 -27.1257 14.6936 -0.445638 55.2188 -0.597497 7.60068 37.5824 9.16191 -11.5816 177.36 -3.29632 83.2985 -51.5715 4.97287 -8.23106 46.0142 2.48898 2.44885 24.4312 -1.19603 9.16575 1.26015 7.71362 -89.6485 11.4435 2.67145 0.428874 -0.22477 2.68773 0.310796 -22.7781 2.41897 1.21235 -2.76546 2.41898 1.21235 82.6473 -46.7981 -113.14 24.2433 -26.7177 5.09216 -15.2341 13.5968 -107.403 -18.5445 -1.13106 1.97921 -97.4196 -40.4715 64.2828 -46.5133 13.0464 37.3811 7.28692 -3.89486 -86.8512 37.6171 3.13561 4.49263 11.9092 -6.82693 1.56438 -1.33288 -7.03343 -0.499086 
-38.3561 96.8169 -93.3098 84.5449 -52.6364 84.0533 -176.581 23.4969 90.0769 -8.03352 22.273 -0.209063 43.7386 -11.5227 0.28262 31.2744 2.53551 3.95985 176.693 -8.1027 85.024 -39.37 1.07545 -7.24184 45.4317 3.59003 3.38904 22.2082 -1.63718 10.1126 1.36885 7.53977 -89.8631 11.7978 2.78674 -0.0226239 0.129797 2.78303 -0.145363 -22.4279 2.66462 0.81655 -2.41523 2.66462 0.816554 82.921 -46.5485 -112.811 24.0374 -27.3868 3.94167 -16.3525 17.822 -115.514 -16.2056 -1.20661 3.59443 -96.0846 -38.7994 65.7983 -49.7817 11.6983 42.1879 7.50999 -4.63653 -89.8319 37.7261 3.43491 5.27013 12.0938 -8.76872 2.61932 -2.82731 -9.18188 -1.44579 
-45.5112 98.2762 -99.2828 78.9633 -50.445 82.19 -176.396 28.528 92.9757 -8.1717 25.8155 -0.477321 46.1821 -10.1444 2.5135 40.053 13.0512 4.58671 177.612 -8.3954 88.413 -30.3721 -0.586379 -4.96946 46.5567 2.91441 2.74102 29.0085 -0.594767 10.0623 1.38499 7.1878 -90.1054 12.5076 2.70158 -0.522966 0.839266 2.67593 -0.641457 -21.7183 2.73376 0.313762 -1.70568 2.73373 0.313753 83.2158 -47.1712 -112.121 24.5164 -28.9128 4.78065 -17.6962 17.8592 -121.729 -19.0761 -1.58852 4.60345 -95.2263 -37.5889 66.7573 -51.3024 10.4934 44.757 5.18016 -5.428 -92.8217 38.8225 3.57937 5.38958 13.257 -11.1443 1.70748 -3.81064 -11.2679 -1.29627 
-53.2089 98.4428 -105.564 77.3148 -49.146 80.3868 -176.979 30.7949 92.9272 -18.5212 21.1692 0.221928 48.2904 -7.45621 3.802 42.1778 15.959 7.04026 177.671 -5.92748 89.1801 -28.8324 0.989213 -3.97225 49.9195 2.00632 1.83525 28.9999 -0.436982 6.91177 1.21921 7.15193 -90.094 12.5772 2.37727 -0.464538 0.908333 2.35451 -0.568772 -21.6442 2.40691 0.271828 -1.63153 2.40691 0.271825 83.0817 -47.3171 -112.274 26.4506 -28.4426 7.43381 -17.7834 16.9793 -121.811 -20.3984 -1.62296 4.18356 -96.0692 -39.0022 65.9051 -49.6056 9.18188 44.1719 8.21699 -5.19759 -93.7431 39.9433 3.1585 3.86816 14.2985 -13.2514 3.01573 -5.01982 -13.6123 -3.57676 
-61.9403 97.5 -112.23 82.2172 -49.7559 80.3169 -175.089 28.8718 90.4947 -34.6105 15.4398 -0.749939 50.2014 -6.5127 1.05707 38.6437 11.9588 10.9277 177.028 -3.47792 86.7762 -32.3065 -0.165201 -4.81257 54.4186 1.18872 1.0564 31.0756 -0.032697 3.52018 1.01731 7.55945 -89.7539 11.7553 2.1391 0.267636 0.0861464 2.14881 0.173179 -22.4613 1.95972 0.898386 -2.44864 1.95971 0.898377 81.9203 -48.4756 -113.613 27.4901 -24.7535 12.3187 -19.8763 16.609 -116.517 -16.075 -0.995149 2.08646 -97.034 -40.1285 64.7686 -47.8635 9.35322 40.9514 8.71252 -4.96926 -92.6784 38.0809 2.95323 3.86492 12.1968 -14.8314 2.99357 -4.39592 -15.1336 -4.592 
-70.3026 95.3168 -118.686 82.82 -49.3684 78.9367 -173.639 28.1925 89.7767 -50.1188 17.0379 -1.5663 49.2037 -6.6876 5.08992 38.9795 12.2309 9.27545 178.432 1.58527 88.4325 -35.4058 1.04716 -5.53395 56.9405 0.739703 0.693858 52.1153 2.23473 5.55901 0.724531 7.62707 -89.5429 11.6146 1.65546 0.739231 -0.0554228 1.68639 0.665624 -22.595 1.35677 1.20263 -2.58237 1.35675 1.20262 81.1682 -50.3885 -114.014 27.4614 -22.4258 16.4341 -21.996 14.2415 -108.593 -15.7063 -0.845776 1.22206 -98.0872 -41.353 63.569 -44.4027 9.25289 36.7067 9.73559 -4.64136 -93.3631 40.8057 3.62253 4.99537 11.7127 -15.5063 2.5829 -4.40004 -15.6891 -4.70015 
